<svg width="34" height="34" viewBox="0 0 34 34" fill="none" xmlns="http://www.w3.org/2000/svg">
<path d="M13.4584 4.25H20.5417C21.1053 4.25 21.6458 4.47388 22.0443 4.8724C22.4429 5.27091 22.6667 5.81141 22.6667 6.375C22.6667 7.69003 22.1443 8.9512 21.2145 9.88107C20.2846 10.8109 19.0234 11.3333 17.7084 11.3333H16.2917C14.9767 11.3333 13.7155 10.8109 12.7857 9.88107C11.8558 8.9512 11.3334 7.69003 11.3334 6.375C11.3334 5.81141 11.5573 5.27091 11.9558 4.8724C12.3543 4.47388 12.8948 4.25 13.4584 4.25Z" fill="#4169E1" stroke="#F7F8FC" stroke-width="0.673267" stroke-linecap="round" stroke-linejoin="round"/>
<path d="M5.66675 24.0833V22.6666C5.66675 19.6608 6.86079 16.7781 8.9862 14.6527C11.1116 12.5273 13.9943 11.3333 17.0001 11.3333C20.0059 11.3333 22.8885 12.5273 25.014 14.6527C27.1394 16.7781 28.3334 19.6608 28.3334 22.6666V24.0833C28.3334 25.5861 27.7364 27.0275 26.6737 28.0902C25.611 29.1529 24.1696 29.7499 22.6667 29.7499H11.3334C9.83052 29.7499 8.38918 29.1529 7.32648 28.0902C6.26377 27.0275 5.66675 25.5861 5.66675 24.0833Z" fill="#4169E1" stroke="#F7F8FC" stroke-width="0.673267" stroke-linecap="round" stroke-linejoin="round"/>
<g clip-path="url(#clip0_703_2951)">
<path d="M14.5376 17.822C14.3761 17.6143 14.0739 17.5202 13.7945 17.593C13.5151 17.6658 13.3246 17.8859 13.3246 18.1362V21.5446H12.6623C12.296 21.5446 12 21.7985 12 22.1127C12 22.4269 12.296 22.6807 12.6623 22.6807H13.3246V24.953C13.3246 25.2672 13.6206 25.5211 13.987 25.5211C14.3533 25.5211 14.6493 25.2672 14.6493 24.953V22.6807H16.7233L18.7351 25.269C18.8966 25.4767 19.1988 25.5708 19.4782 25.498C19.7576 25.4252 19.948 25.2051 19.948 24.9548V22.6807H20.6104C20.9767 22.6807 21.2727 22.4269 21.2727 22.1127C21.2727 21.7985 20.9767 21.5446 20.6104 21.5446H19.948V18.1362C19.948 17.822 19.652 17.5681 19.2857 17.5681C18.9193 17.5681 18.6233 17.822 18.6233 18.1362V21.5446H17.4332L14.5376 17.822ZM18.3149 22.6807H18.6233V23.0766L18.3149 22.6807ZM15.8395 21.5446H14.6493V20.0126L15.8395 21.5446Z" fill="#F7F8FC"/>
</g>
<defs>
<clipPath id="clip0_703_2951">
<rect width="9.27273" height="9.08911" fill="white" transform="translate(12 17)"/>
</clipPath>
</defs>
</svg>
